<svg width="40" height="40" viewBox="0 0 40 40" fill="none" xmlns="http://www.w3.org/2000/svg">
<circle cx="20" cy="20" r="20" fill="#E7F6FF"/>
<path d="M25.726 21.02L22 24H17V23H21.065C21.1554 23 21.2442 22.9754 21.3218 22.9289C21.3993 22.8824 21.4629 22.8157 21.5055 22.736C21.5482 22.6563 21.5685 22.5664 21.5642 22.4761C21.5598 22.3858 21.5311 22.2983 21.481 22.223L20.593 20.891C20.4108 20.6168 20.1636 20.392 19.8735 20.2365C19.5833 20.081 19.2592 19.9998 18.93 20H11C10.7348 20 10.4804 20.1054 10.2929 20.2929C10.1054 20.4804 10 20.7348 10 21V27C10 27.5304 10.2107 28.0391 10.5858 28.4142C10.9609 28.7893 11.4696 29 12 29H21.639C22.0666 29.0001 22.4893 28.9088 22.8787 28.7322C23.2682 28.5556 23.6153 28.2977 23.897 27.976L30 21L28.548 20.516C28.073 20.3577 27.5658 20.3208 27.0729 20.4089C26.5799 20.4969 26.1169 20.707 25.726 21.02V21.02ZM27.258 15.39C27.709 14.925 27.988 14.282 27.988 13.572C27.988 12.862 27.709 12.219 27.258 11.754C27.0299 11.516 26.7561 11.3265 26.453 11.1969C26.1498 11.0674 25.8237 11.0004 25.494 11C25.494 11 24.25 10.997 23 12.286C21.75 10.997 20.506 11 20.506 11C20.1764 11.0004 19.8504 11.0673 19.5473 11.1967C19.2442 11.3261 18.9703 11.5153 18.742 11.753C18.291 12.219 18.012 12.861 18.012 13.571C18.012 14.281 18.291 14.925 18.742 15.389L23 20L27.258 15.39Z" fill="#4285F4"/>
</svg>
