<svg width="40" height="40" viewBox="0 0 40 40" fill="none" xmlns="http://www.w3.org/2000/svg">
<circle cx="20" cy="20" r="20" fill="#E7F6FF"/>
<path d="M20 23C18.16 23 18 22.14 18 22H16C16 22.92 16.66 24.55 19 24.92V26H21V24.92C23 24.58 24 23.29 24 22C24 20.88 23.48 19 20 19C18 19 18 18.37 18 18C18 17.63 18.7 17 20 17C21.3 17 21.39 17.64 21.4 18H23.4C23.3865 17.3188 23.1415 16.6624 22.7053 16.139C22.269 15.6155 21.6676 15.2561 21 15.12V14H19V15.09C17 15.42 16 16.71 16 18C16 19.12 16.52 21 20 21C22 21 22 21.68 22 22C22 22.32 21.38 23 20 23Z" fill="#4285F4"/>
<path d="M13 10H10V12H12V29C12 29.2652 12.1054 29.5196 12.2929 29.7071C12.4804 29.8946 12.7348 30 13 30H27C27.2652 30 27.5196 29.8946 27.7071 29.7071C27.8946 29.5196 28 29.2652 28 29V12H30V10H13ZM26 28H14V12H26V28Z" fill="#4285F4"/>
</svg>
