<svg width="40" height="40" viewBox="0 0 40 40" fill="none" xmlns="http://www.w3.org/2000/svg">
<circle cx="20" cy="20" r="20" fill="#E7F6FF"/>
<path d="M26.9908 10H17.0098C15.8988 10 14.9998 10.899 14.9998 12.01V17.647L10.2978 22.289C10.1569 22.4283 10.0606 22.6064 10.0211 22.8006C9.98155 22.9947 10.0006 23.1963 10.0758 23.3796C10.151 23.5629 10.279 23.7197 10.4435 23.8302C10.608 23.9407 10.8016 23.9998 10.9998 24V29C10.9998 29.2652 11.1051 29.5196 11.2927 29.7071C11.4802 29.8946 11.7346 30 11.9998 30H27.9998C28.265 30 28.5194 29.8946 28.7069 29.7071C28.8944 29.5196 28.9998 29.2652 28.9998 29V12.009C28.9998 10.899 28.1018 10 26.9908 10ZM18.9218 23.111V28H12.9998V22.432L15.9868 19.483L18.9218 22.486V23.111V23.111ZM20.9998 17H18.9998V15H20.9998V17ZM24.9998 25H22.9998V23H24.9998V25ZM24.9998 21H22.9998V19H24.9998V21ZM24.9998 17H22.9998V15H24.9998V17Z" fill="#4285F4"/>
<path d="M15 23H17V25H15V23Z" fill="#4285F4"/>
</svg>
