<svg width="1749" height="503" viewBox="0 0 1749 503" fill="none" xmlns="http://www.w3.org/2000/svg">
<path d="M230.834 471.541C230.797 471.588 230.779 471.625 230.733 471.643C212.997 486.496 190.662 495.946 163.746 500.019C153.539 501.571 142.676 502.347 131.148 502.347C111.187 502.347 91.9644 499.723 73.4902 494.477C55.035 489.23 38.0479 481.758 22.585 472.022C21.8367 471.56 21.0978 471.089 20.3771 470.618C20.359 470.59 20.3315 470.572 20.3126 470.572C18.2714 469.25 16.2671 467.893 14.3084 466.489C14.3084 466.489 14.2809 466.461 14.2628 466.461C5.92174 459.505 0.619385 449.022 0.619385 437.299C0.619385 419.925 12.2577 405.275 28.1089 400.832C31.3229 399.917 34.7224 399.437 38.2326 399.437C44.4861 399.437 50.3881 400.98 55.5891 403.705C57.9447 405.459 60.3648 407.113 62.8219 408.665C67.5693 411.677 72.5022 414.318 77.6191 416.609C93.8209 423.86 112.175 427.471 132.653 427.471C151.109 427.471 165.085 424.728 174.581 419.232C177.268 417.662 179.596 415.907 181.517 413.948C181.536 413.93 181.583 413.884 181.601 413.866C181.619 413.902 181.647 413.948 181.647 413.985C191.595 437.974 208.933 458.102 230.834 471.541Z" fill="white"/>
<path d="M70.1468 162.282C70.1468 180.655 55.2419 195.539 36.8692 195.539C28.1579 195.539 20.2303 192.195 14.3062 186.703C7.72036 180.655 3.59229 171.944 3.59229 162.282C3.59229 143.889 18.4964 129.004 36.8692 129.004C47.5627 129.004 57.1 134.062 63.1899 141.907C67.5459 147.522 70.1468 154.603 70.1468 162.282Z" fill="white"/>
<path d="M266.914 410.078C263.127 430.049 253.899 447.71 240.902 462.009C240.717 461.862 240.524 461.713 240.339 461.575C229.19 452.837 219.158 442.704 210.568 431.453C205.506 424.867 200.971 417.893 196.944 410.586C196.731 410.189 196.51 409.69 196.279 409.275C194.542 406.014 192.916 402.606 191.383 398.911H191.364C191.346 398.911 189.969 395.641 189.969 395.613C189.72 394.957 188.805 392.445 188.787 392.445C188.334 391.521 187.901 390.311 187.466 389.101C187.337 388.75 187.217 388.51 187.115 388.159C187.032 387.946 186.949 387.78 186.884 387.549C186.45 385.572 185.85 383.743 185.046 381.988C185.046 381.943 185.028 381.914 185.009 381.877C182.802 376.945 179.162 372.816 174.128 369.454C166.803 364.558 157.713 360.254 146.925 356.512C146.029 356.226 145.142 355.921 144.256 355.626C142.584 355.091 140.893 354.554 139.157 354.037C137.586 353.585 136.016 353.114 134.455 352.633L134.427 352.615C121.569 348.818 108.111 344.892 94.0522 340.865C92.2601 340.357 90.4775 339.84 88.7223 339.276C84.6579 337.983 80.658 336.579 76.7138 335.027C75.3934 334.556 74.091 334.039 72.7885 333.476C72.5386 333.392 72.2894 333.291 72.0497 333.189C70.7009 332.635 69.3616 332.072 68.0403 331.481C67.3384 331.213 66.6546 330.898 65.981 330.593C64.6134 329.994 63.274 329.374 61.9347 328.709C61.6855 328.608 61.4364 328.506 61.1864 328.358C60.0506 327.841 58.9424 327.305 57.8428 326.732C56.9742 326.317 56.1065 325.883 55.2655 325.43C53.7139 324.645 52.1899 323.842 50.6564 323.01C49.6864 322.483 48.726 321.948 47.7835 321.384C34.8609 313.829 24.22 303.76 15.8515 291.197C6.85417 277.721 2.37476 260.253 2.37476 238.787C2.37476 223.74 4.66515 210.05 9.31119 197.792C16.9322 203.713 26.4649 207.242 36.8652 207.242C61.7036 207.242 81.8496 187.114 81.8496 162.286C81.8496 153.058 79.0883 144.486 74.3126 137.346C91.8263 131.092 112.037 127.97 134.908 127.97C163.847 127.97 189.425 133.097 211.639 143.312C227.139 150.471 240.893 160.096 252.883 172.252C236.866 180.177 222.373 190.689 209.921 203.261C209.284 203.88 208.665 204.517 208.065 205.182C207.529 205.718 207.012 206.254 206.522 206.79C204.333 209.126 202.227 211.519 200.204 213.976C198.135 216.451 196.158 218.991 194.255 221.587C194.237 221.615 194.218 221.652 194.191 221.67C189.388 218.142 184.344 215.112 179.079 212.572C165.602 206.088 150.121 202.845 132.653 202.845C116.184 202.845 103.446 205.349 94.468 210.318C85.4895 215.315 81.0093 222.557 81.0093 232.034C81.0093 242.029 85.5076 249.77 94.4861 255.256C95.6038 255.94 96.7773 256.624 97.9775 257.289C98.0797 257.344 98.1811 257.39 98.2825 257.446C106.392 261.685 116.286 265.177 127.887 268.437C128.47 268.604 129.024 268.668 129.596 268.668H129.624C135.499 270.636 141.503 272.493 147.627 274.321C155.857 276.788 164.309 279.217 172.992 281.831C176.253 282.801 179.476 283.245 182.672 285.268C182.718 285.268 182.755 285.295 182.802 285.295H182.82C195.059 289.914 206.809 294.976 218.096 301.497C232.386 309.782 244.052 320.738 253.068 334.529L254.25 336.422C254.444 336.736 254.638 337.05 254.823 337.365C254.934 337.549 255.035 337.725 255.127 337.9C256.282 340.006 257.372 342.149 258.398 344.32C258.435 344.394 258.462 344.468 258.499 344.542C258.767 345.142 259.026 345.743 259.284 346.361C259.284 346.361 259.302 346.379 259.302 346.398C259.885 347.784 260.42 349.234 260.938 350.694C260.974 350.795 261.021 350.924 261.039 351.026C261.51 352.781 262.046 354.518 262.665 356.208C262.692 356.273 262.711 356.356 262.729 356.411C263.044 357.298 263.349 358.166 263.681 359.035C263.699 359.08 263.699 359.099 263.718 359.136C263.801 359.367 263.912 359.57 263.986 359.801C264.235 360.42 264.503 361.02 264.753 361.621C264.817 361.768 264.873 361.916 264.947 362.055C269.159 377.37 270.027 393.674 266.914 410.078Z" fill="white"/>
<path d="M508.823 0.969504V490.357H434.926V469.102C408.139 486.589 376.807 496.786 342.852 496.786C342.168 496.786 341.402 496.786 340.727 496.768C324.516 496.583 308.823 494.089 294.062 489.545C289.683 488.223 285.342 486.717 281.13 485.028C266.6 479.245 253.086 471.44 240.902 462.009C253.899 447.71 263.127 430.048 266.914 410.078C270.027 393.673 269.159 377.37 264.947 362.055C265.196 362.646 265.464 363.219 265.741 363.8C266.286 364.965 266.84 366.119 267.441 367.227C267.662 367.643 267.875 368.059 268.096 368.447C268.715 369.601 269.381 370.765 270.064 371.873C270.738 373.01 271.459 374.109 272.188 375.199C272.66 375.883 273.14 376.566 273.611 377.222C274.165 378.025 274.765 378.811 275.384 379.596C275.588 379.882 275.819 380.15 276.05 380.418C276.336 380.815 276.668 381.203 276.973 381.6C277.204 381.886 277.426 382.154 277.675 382.422C278.155 382.958 278.626 383.522 279.098 384.057C280.447 385.581 281.85 387.05 283.31 388.454C283.79 388.907 284.243 389.341 284.714 389.775C285.148 390.209 285.6 390.598 286.081 391.013C286.617 391.512 287.171 391.982 287.734 392.435C288.473 393.073 289.259 393.701 290.044 394.32C290.746 394.874 291.466 395.409 292.215 395.945C292.99 396.527 293.821 397.1 294.643 397.664C294.709 397.701 294.791 397.765 294.874 397.802C295.697 398.366 296.546 398.902 297.387 399.419C298.154 399.908 298.939 400.389 299.742 400.841C300.675 401.377 301.599 401.894 302.569 402.384C303.4 402.817 304.222 403.233 305.072 403.649C307.714 404.924 310.439 406.06 313.228 407.049C313.93 407.298 314.605 407.547 315.307 407.75C316.157 408.046 317.007 408.295 317.866 408.536C318.678 408.785 319.501 408.997 320.323 409.219C320.368 409.238 320.406 409.238 320.452 409.238C321.81 409.616 323.196 409.921 324.599 410.189C325.883 410.457 327.177 410.688 328.497 410.891C329.43 411.039 330.382 411.159 331.306 411.261C332.441 411.408 333.578 411.51 334.733 411.593C335.785 411.676 336.838 411.741 337.891 411.778C338.963 411.824 340.016 411.842 341.097 411.842C342.15 411.842 343.221 411.824 344.275 411.778C346.38 411.695 348.468 411.556 350.509 411.306C351.026 411.261 351.544 411.177 352.052 411.122C354.638 410.789 357.151 410.336 359.635 409.755C360.374 409.589 361.122 409.422 361.861 409.219C362.518 409.053 363.183 408.868 363.848 408.683C364.503 408.517 365.141 408.314 365.805 408.102C366.711 407.815 367.616 407.529 368.531 407.196C369.436 406.891 370.323 406.559 371.209 406.208C372.142 405.838 373.075 405.459 373.999 405.072C374.849 404.702 375.736 404.305 376.576 403.898C377.408 403.52 378.211 403.113 378.996 402.716C379.513 402.448 380.031 402.18 380.548 401.894C381.185 401.561 381.823 401.192 382.442 400.841C382.977 400.527 383.494 400.222 384.012 399.908C384.197 399.806 384.382 399.686 384.567 399.557C385.416 399.067 386.238 398.523 387.069 397.969C388.723 396.878 390.33 395.724 391.872 394.523C392.575 393.969 393.258 393.424 393.942 392.869C394.413 392.482 394.875 392.103 395.328 391.696C395.697 391.364 396.066 391.049 396.417 390.726C397.904 389.424 399.327 388.057 400.694 386.635C401.249 386.062 401.803 385.48 402.347 384.879C402.634 384.574 402.92 384.261 403.207 383.928C403.706 383.392 404.176 382.838 404.657 382.256C405.294 381.517 405.913 380.751 406.532 379.965C407.133 379.18 407.751 378.395 408.333 377.592C408.851 376.89 409.34 376.187 409.839 375.467C410.273 374.83 410.725 374.192 411.141 373.527C411.511 372.973 411.926 372.41 412.249 371.837C413.303 370.118 414.374 368.364 415.307 366.572C415.474 366.221 418.974 357.963 419.224 357.325C419.575 356.374 419.871 355.404 420.175 354.434C420.489 353.465 420.775 352.495 421.043 351.496C421.255 350.841 421.403 350.176 421.57 349.52C421.782 348.772 421.939 348.032 422.106 347.294C422.124 347.229 422.143 347.165 422.143 347.1C422.291 346.564 422.41 346.028 422.493 345.493C422.66 344.809 422.779 344.135 422.882 343.451C423.131 342.084 423.334 340.727 423.528 339.322C423.685 338.066 423.833 336.782 423.916 335.498C423.934 335.341 423.934 335.175 423.934 335.027C424.017 334.159 424.064 333.319 424.101 332.45C424.119 332.238 424.119 332.016 424.119 331.803C424.165 330.796 424.184 329.781 424.184 328.755C424.184 325.984 424.036 323.24 423.768 320.552C419.667 278.505 384.215 245.658 341.097 245.658C334.215 245.658 327.527 246.49 321.136 248.078C302.283 252.725 285.979 263.782 274.645 278.839C274.618 278.894 274.562 278.958 274.497 279.041C274.147 279.494 273.814 279.947 273.509 280.408C269.482 285.812 266.138 291.715 263.579 298.033C263.21 298.864 262.877 299.704 262.609 300.536C262.277 301.358 261.963 302.208 261.723 303.048C261.409 303.899 261.122 304.766 260.892 305.635C260.356 307.344 259.903 309.08 259.506 310.854C259.182 312.277 258.887 313.698 258.665 315.167C249.068 304.332 236.653 294.005 222.087 285.341C210.836 278.654 199.372 273.527 188.251 270.1C193.452 257.011 199.751 244.587 207.732 233.54C222.354 213.227 241.485 196.36 263.616 184.39C275.551 177.933 288.353 172.871 301.83 169.49C314.873 166.165 328.562 164.428 342.639 164.428C363.82 164.428 384.095 168.391 402.736 175.642C404.158 176.196 405.58 176.751 407.012 177.351C414.67 180.574 422.225 184.353 429.246 188.647C431.102 189.756 433.079 190.911 434.926 192.111V74.9399C448.782 38.2778 474.802 10.6129 508.823 0.969504Z" fill="white"/>
<path d="M658.57 416.842C658.188 416.597 657.56 416.119 656.687 415.41C655.814 414.7 654.743 413.977 653.474 413.24C652.205 412.503 650.778 411.843 649.196 411.255C647.613 410.669 645.908 410.374 644.079 410.374C641.923 410.374 640.068 410.634 638.512 411.152C636.957 411.671 635.674 412.36 634.665 413.22C633.655 414.079 632.91 415.049 632.434 416.126C631.956 417.205 631.717 418.289 631.717 419.38C631.717 420.909 632.222 422.192 633.232 423.228C634.241 424.265 635.579 425.166 637.244 425.93C638.907 426.694 640.798 427.383 642.913 427.996C645.027 428.611 647.183 429.26 649.38 429.941C651.577 430.623 653.733 431.388 655.848 432.234C657.962 433.079 659.853 434.13 661.518 435.386C663.182 436.641 664.519 438.142 665.529 439.888C666.539 441.635 667.043 443.75 667.043 446.233C667.043 449.098 666.45 451.698 665.263 454.03C664.076 456.364 662.451 458.356 660.391 460.007C658.331 461.659 655.909 462.934 653.126 463.835C650.342 464.736 647.354 465.186 644.161 465.186C642.033 465.186 639.925 464.946 637.837 464.469C635.749 463.992 633.743 463.296 631.819 462.382C629.896 461.467 628.101 460.355 626.437 459.045C624.772 457.736 623.285 456.235 621.975 454.543C621.62 454.107 621.449 453.67 621.464 453.233C621.477 452.796 621.715 452.388 622.18 452.005L625.413 449.303C625.877 448.921 626.328 448.751 626.765 448.791C627.201 448.832 627.596 449.071 627.951 449.508L628.484 450.04C629.63 451.323 630.933 452.435 632.392 453.376C633.852 454.318 635.312 455.095 636.773 455.709C638.232 456.323 639.631 456.781 640.968 457.08C642.305 457.381 643.438 457.531 644.366 457.531C646.03 457.531 647.736 457.313 649.482 456.876C651.229 456.44 652.825 455.771 654.272 454.871C655.718 453.969 656.905 452.83 657.834 451.452C658.761 450.074 659.225 448.458 659.225 446.601C659.225 445.046 658.767 443.73 657.854 442.651C656.939 441.574 655.704 440.632 654.149 439.827C652.593 439.022 650.772 438.299 648.685 437.657C646.597 437.017 644.366 436.341 641.992 435.631C638.717 434.676 635.907 433.673 633.56 432.622C631.212 431.572 629.281 430.413 627.768 429.142C626.253 427.874 625.141 426.455 624.431 424.885C623.721 423.317 623.367 421.55 623.367 419.585C623.367 417.102 623.864 414.83 624.861 412.769C625.857 410.709 627.269 408.929 629.097 407.427C630.926 405.927 633.13 404.761 635.708 403.927C638.287 403.096 641.174 402.679 644.366 402.679C646.085 402.679 647.873 402.898 649.728 403.334C651.584 403.771 653.392 404.378 655.152 405.156C656.912 405.933 658.563 406.862 660.105 407.939C661.646 409.018 662.977 410.211 664.096 411.52C664.478 411.931 664.676 412.36 664.69 412.81C664.703 413.26 664.492 413.69 664.056 414.1L661.149 416.883C660.712 417.293 660.269 417.484 659.818 417.456C659.369 417.429 658.952 417.224 658.57 416.842Z" fill="white"/>
<path d="M689.68 462.566C689.68 463.766 689.08 464.367 687.879 464.367H683.662C682.38 464.367 681.738 463.766 681.738 462.566V414.182C681.738 413.636 681.916 413.199 682.27 412.871C682.625 412.544 683.049 412.38 683.54 412.38H687.797C688.37 412.38 688.826 412.559 689.168 412.912C689.509 413.267 689.68 413.69 689.68 414.182V462.566ZM689.68 402.924C689.68 404.126 689.08 404.726 687.879 404.726H683.662C682.38 404.726 681.738 404.126 681.738 402.924V398.708C681.738 398.163 681.916 397.726 682.27 397.399C682.625 397.071 683.049 396.908 683.54 396.908H687.797C688.37 396.908 688.826 397.078 689.168 397.419C689.509 397.76 689.68 398.19 689.68 398.708V402.924Z" fill="white"/>
<path d="M702.656 454.215C702.519 453.806 702.424 453.472 702.369 453.213C702.314 452.953 702.321 452.735 702.39 452.558C702.458 452.38 702.567 452.224 702.717 452.087C702.867 451.951 703.079 451.814 703.352 451.677L707.241 449.876C707.922 449.604 708.454 449.638 708.837 449.978C709.219 450.32 709.519 450.735 709.738 451.227C710.147 452.292 710.795 453.226 711.682 454.031C712.568 454.837 713.53 455.499 714.568 456.017C715.605 456.535 716.655 456.924 717.72 457.183C718.784 457.442 719.698 457.572 720.462 457.572C721.5 457.572 722.646 457.422 723.901 457.122C725.155 456.821 726.337 456.358 727.442 455.73C728.547 455.102 729.474 454.291 730.225 453.295C730.976 452.299 731.35 451.119 731.35 449.754C731.35 448.28 730.996 447.092 730.286 446.192C729.576 445.292 728.656 444.548 727.523 443.962C726.391 443.375 725.122 442.904 723.717 442.549C722.311 442.195 720.913 441.826 719.521 441.444C717.065 440.789 714.874 439.991 712.951 439.049C711.027 438.108 709.39 437.017 708.039 435.775C706.688 434.533 705.658 433.113 704.949 431.518C704.238 429.921 703.884 428.127 703.884 426.134C703.884 423.952 704.307 421.959 705.153 420.158C705.998 418.357 707.179 416.816 708.694 415.533C710.208 414.25 712.023 413.254 714.138 412.544C716.252 411.835 718.593 411.48 721.158 411.48C723.259 411.48 725.067 411.671 726.582 412.053C728.096 412.436 729.44 413.001 730.614 413.753C731.787 414.503 732.866 415.43 733.848 416.536C734.83 417.641 735.853 418.917 736.918 420.363C737.245 420.909 737.422 421.38 737.45 421.775C737.477 422.171 737.231 422.56 736.713 422.942L733.521 425.356C732.893 425.712 732.415 425.807 732.088 425.643C731.76 425.479 731.405 425.166 731.023 424.702C730.395 423.965 729.782 423.255 729.181 422.573C728.581 421.892 727.898 421.284 727.135 420.752C726.37 420.22 725.503 419.797 724.535 419.483C723.567 419.169 722.413 419.012 721.077 419.012C719.875 419.012 718.716 419.149 717.597 419.421C716.478 419.695 715.475 420.132 714.588 420.731C713.701 421.332 712.992 422.089 712.46 423.003C711.928 423.918 711.662 425.003 711.662 426.258C711.662 427.213 711.989 428.093 712.644 428.897C713.299 429.703 714.131 430.432 715.141 431.088C716.15 431.743 717.255 432.302 718.457 432.766C719.657 433.23 720.817 433.599 721.936 433.871C724.528 434.471 726.895 435.236 729.038 436.163C731.18 437.091 733.015 438.196 734.544 439.479C736.072 440.763 737.259 442.256 738.105 443.962C738.95 445.667 739.374 447.598 739.374 449.754C739.374 452.128 738.903 454.264 737.962 456.16C737.02 458.057 735.71 459.667 734.032 460.99C732.353 462.314 730.355 463.33 728.035 464.039C725.715 464.748 723.191 465.104 720.462 465.104C718.743 465.104 716.976 464.885 715.161 464.45C713.346 464.012 711.634 463.344 710.025 462.444C708.413 461.542 706.954 460.41 705.644 459.046C704.334 457.681 703.338 456.072 702.656 454.215Z" fill="white"/>
<path d="M765.816 464.94C764.561 464.94 763.299 464.79 762.03 464.49C760.761 464.19 759.621 463.665 758.612 462.914C757.602 462.163 756.777 461.14 756.136 459.844C755.494 458.548 755.173 456.89 755.173 454.87V419.38H750.425C749.743 419.38 749.238 419.278 748.911 419.074C748.583 418.869 748.42 418.412 748.42 417.702V413.895C748.42 413.185 748.583 412.743 748.911 412.564C749.238 412.388 749.743 412.299 750.425 412.299H755.173V403.58C755.173 403.116 755.269 402.782 755.46 402.577C755.651 402.372 755.978 402.203 756.443 402.065C756.606 402.011 756.94 401.949 757.446 401.88C757.95 401.814 758.475 401.724 759.021 401.615C759.676 401.506 760.386 401.384 761.15 401.247C761.614 401.193 761.982 401.22 762.255 401.328C762.528 401.438 762.726 401.601 762.849 401.819C762.972 402.038 763.047 402.291 763.074 402.577C763.101 402.863 763.115 403.17 763.115 403.498V412.299H768.805C769.432 412.299 769.889 412.436 770.176 412.708C770.462 412.982 770.606 413.473 770.606 414.182V417.416C770.606 418.125 770.462 418.63 770.176 418.93C769.889 419.231 769.432 419.38 768.805 419.38H763.115V454.788C763.115 455.744 763.346 456.412 763.811 456.794C764.274 457.176 764.916 457.367 765.735 457.367C766.362 457.367 766.881 457.558 767.29 457.94C767.7 458.323 767.904 458.855 767.904 459.537V462.894C767.904 463.521 767.713 464.019 767.331 464.388C766.948 464.757 766.444 464.94 765.816 464.94Z" fill="white"/>
<path d="M797.336 422.164C795.261 423.556 793.474 425.31 791.974 427.424C790.472 429.539 789.449 431.866 788.903 434.403H825.908C825.607 432.138 824.905 430.078 823.8 428.222C822.694 426.367 821.309 424.784 819.644 423.473C817.98 422.164 816.104 421.148 814.016 420.424C811.929 419.701 809.765 419.339 807.529 419.339C805.754 419.339 804.001 419.572 802.268 420.035C800.535 420.5 798.891 421.209 797.336 422.164ZM819.767 452.455C820.013 452.237 820.28 452.032 820.565 451.841C820.852 451.651 821.145 451.555 821.446 451.555C821.855 451.555 822.251 451.8 822.633 452.291C823.178 453.029 823.622 453.628 823.964 454.092C824.305 454.557 824.584 454.925 824.802 455.197C825.02 455.498 825.184 455.717 825.294 455.853C825.43 456.016 825.539 456.187 825.621 456.364C825.703 456.542 825.743 456.739 825.743 456.958C825.743 457.258 825.629 457.58 825.397 457.92C825.165 458.262 824.761 458.664 824.189 459.127C823.015 460.055 821.794 460.894 820.525 461.645C819.256 462.396 817.927 463.044 816.534 463.589C815.142 464.135 813.675 464.558 812.134 464.858C810.592 465.158 808.961 465.309 807.242 465.309C804.813 465.309 802.466 464.987 800.201 464.346C797.935 463.706 795.801 462.791 793.795 461.604C791.789 460.417 789.961 459.005 788.31 457.367C786.659 455.73 785.233 453.915 784.032 451.923C782.831 449.931 781.903 447.795 781.249 445.517C780.594 443.238 780.266 440.871 780.266 438.414C780.266 435.959 780.573 433.585 781.187 431.292C781.801 429 782.674 426.858 783.807 424.866C784.939 422.874 786.31 421.059 787.921 419.422C789.531 417.784 791.339 416.379 793.344 415.205C795.35 414.032 797.52 413.124 799.853 412.484C802.186 411.842 804.649 411.521 807.242 411.521C809.288 411.521 811.321 411.753 813.341 412.217C815.359 412.682 817.297 413.357 819.153 414.243C821.009 415.13 822.749 416.228 824.373 417.538C825.996 418.848 827.449 420.349 828.732 422.041C830.478 424.388 831.775 427.062 832.621 430.064C833.467 433.067 833.863 436.519 833.808 440.421C833.808 441.703 833.207 442.344 832.007 442.344H788.863C789.326 444.528 790.137 446.546 791.298 448.403C792.458 450.259 793.849 451.876 795.473 453.253C797.097 454.632 798.905 455.71 800.897 456.487C802.889 457.264 804.95 457.653 807.078 457.653C808.579 457.653 809.936 457.51 811.151 457.223C812.365 456.937 813.47 456.555 814.466 456.078C815.462 455.6 816.384 455.055 817.229 454.44C818.075 453.826 818.893 453.192 819.686 452.537L819.767 452.455Z" fill="white"/>
<path d="M856.403 418.439C857.167 417.484 857.986 416.59 858.859 415.758C859.732 414.926 860.708 414.196 861.786 413.568C862.864 412.94 864.084 412.449 865.45 412.094C866.813 411.74 868.397 411.562 870.198 411.562C874.509 411.562 878.03 412.361 880.759 413.956C883.488 415.553 885.671 417.88 887.308 420.936C888.072 419.216 889.062 417.757 890.276 416.556C891.491 415.355 892.855 414.38 894.37 413.629C895.884 412.879 897.508 412.34 899.241 412.012C900.974 411.685 902.741 411.521 904.542 411.521C907.899 411.521 910.859 412.101 913.425 413.261C915.99 414.421 918.139 416.003 919.872 418.009C921.604 420.015 922.914 422.368 923.802 425.07C924.687 427.772 925.132 430.665 925.132 433.749V461.542C925.132 462.471 924.893 463.166 924.416 463.63C923.938 464.094 923.33 464.326 922.594 464.326H919.564C918.554 464.326 917.907 464.121 917.621 463.712C917.334 463.302 917.191 462.621 917.191 461.665V433.749C917.191 432.111 916.966 430.44 916.515 428.734C916.064 427.029 915.328 425.479 914.304 424.088C913.281 422.696 911.924 421.564 910.231 420.69C908.539 419.818 906.466 419.38 904.009 419.38C901.936 419.38 900.079 419.708 898.442 420.362C896.805 421.018 895.42 421.966 894.287 423.208C893.156 424.449 892.289 425.964 891.689 427.751C891.088 429.539 890.788 431.553 890.788 433.789V461.584C890.788 462.511 890.548 463.207 890.072 463.671C889.594 464.135 888.987 464.367 888.25 464.367H885.221C884.211 464.367 883.563 464.162 883.276 463.753C882.99 463.344 882.847 462.662 882.847 461.707V433.789C882.847 432.151 882.622 430.48 882.171 428.774C881.721 427.069 880.983 425.521 879.961 424.129C878.938 422.737 877.579 421.605 875.888 420.731C874.196 419.858 872.122 419.421 869.666 419.421C868.111 419.421 866.541 419.701 864.959 420.26C863.375 420.82 861.95 421.646 860.68 422.737C859.412 423.829 858.382 425.18 857.591 426.789C856.798 428.4 856.403 430.242 856.403 432.315V462.566C856.403 463.767 855.802 464.367 854.602 464.367H850.386C849.103 464.367 848.462 463.767 848.462 462.566V414.182C848.462 413.636 848.639 413.199 848.994 412.872C849.349 412.545 849.771 412.38 850.263 412.38H854.52C855.093 412.38 855.55 412.559 855.892 412.913C856.232 413.268 856.403 413.691 856.403 414.182V418.439Z" fill="white"/>
<path d="M1002.91 422.491C1002.91 421.045 1002.62 419.654 1002.05 418.316C1001.47 416.979 1000.69 415.798 999.691 414.776C998.696 413.752 997.528 412.933 996.192 412.319C994.854 411.705 993.422 411.398 991.893 411.398H977.567V433.585H991.893C993.367 433.585 994.773 433.284 996.11 432.684C997.447 432.084 998.621 431.272 999.63 430.248C1000.64 429.225 1001.44 428.045 1002.03 426.707C1002.61 425.371 1002.91 423.965 1002.91 422.491ZM969.667 405.544C969.667 404.235 970.294 403.579 971.549 403.579H991.893C994.596 403.579 997.098 404.085 999.405 405.094C1001.71 406.104 1003.71 407.475 1005.4 409.208C1007.09 410.941 1008.42 412.961 1009.37 415.267C1010.33 417.573 1010.81 420.009 1010.81 422.573C1010.81 425.085 1010.33 427.472 1009.39 429.737C1008.45 432.002 1007.14 434.001 1005.46 435.734C1003.78 437.467 1001.81 438.844 999.528 439.868C997.249 440.891 994.773 441.403 992.099 441.403H977.567V462.566C977.567 463.767 976.967 464.367 975.766 464.367H971.468C970.267 464.367 969.667 463.767 969.667 462.566V405.544Z" fill="white"/>
<path d="M1040.11 422.164C1038.04 423.556 1036.25 425.31 1034.75 427.424C1033.25 429.539 1032.23 431.866 1031.68 434.403H1068.69C1068.39 432.138 1067.68 430.078 1066.58 428.222C1065.47 426.367 1064.09 424.784 1062.42 423.473C1060.76 422.164 1058.88 421.148 1056.8 420.424C1054.71 419.701 1052.54 419.339 1050.31 419.339C1048.53 419.339 1046.78 419.572 1045.05 420.035C1043.31 420.5 1041.67 421.209 1040.11 422.164ZM1062.55 452.455C1062.79 452.237 1063.06 452.032 1063.34 451.841C1063.63 451.651 1063.92 451.555 1064.22 451.555C1064.63 451.555 1065.03 451.8 1065.41 452.291C1065.96 453.029 1066.4 453.628 1066.74 454.092C1067.08 454.557 1067.36 454.925 1067.58 455.197C1067.8 455.498 1067.96 455.717 1068.07 455.853C1068.21 456.016 1068.32 456.187 1068.4 456.364C1068.48 456.542 1068.52 456.739 1068.52 456.958C1068.52 457.258 1068.41 457.58 1068.17 457.92C1067.94 458.262 1067.54 458.664 1066.97 459.127C1065.79 460.055 1064.57 460.894 1063.3 461.645C1062.03 462.396 1060.7 463.044 1059.31 463.589C1057.92 464.135 1056.45 464.558 1054.91 464.858C1053.37 465.158 1051.74 465.309 1050.02 465.309C1047.59 465.309 1045.24 464.987 1042.98 464.346C1040.71 463.706 1038.58 462.791 1036.57 461.604C1034.57 460.417 1032.74 459.005 1031.09 457.367C1029.44 455.73 1028.01 453.915 1026.81 451.923C1025.61 449.931 1024.68 447.795 1024.03 445.517C1023.37 443.238 1023.04 440.871 1023.04 438.414C1023.04 435.959 1023.35 433.585 1023.97 431.292C1024.58 429 1025.45 426.858 1026.59 424.866C1027.72 422.874 1029.09 421.059 1030.7 419.422C1032.31 417.784 1034.12 416.379 1036.12 415.205C1038.13 414.032 1040.3 413.124 1042.63 412.484C1044.97 411.842 1047.43 411.521 1050.02 411.521C1052.07 411.521 1054.1 411.753 1056.12 412.217C1058.14 412.682 1060.08 413.357 1061.93 414.243C1063.79 415.13 1065.53 416.228 1067.15 417.538C1068.77 418.848 1070.23 420.349 1071.51 422.041C1073.26 424.388 1074.55 427.062 1075.4 430.064C1076.24 433.067 1076.64 436.519 1076.59 440.421C1076.59 441.703 1075.99 442.344 1074.79 442.344H1031.64C1032.1 444.528 1032.92 446.546 1034.08 448.403C1035.24 450.259 1036.63 451.876 1038.25 453.253C1039.87 454.632 1041.68 455.71 1043.68 456.487C1045.67 457.264 1047.73 457.653 1049.86 457.653C1051.36 457.653 1052.71 457.51 1053.93 457.223C1055.14 456.937 1056.25 456.555 1057.24 456.078C1058.24 455.6 1059.16 455.055 1060.01 454.44C1060.85 453.826 1061.67 453.192 1062.46 452.537L1062.55 452.455Z" fill="white"/>
<path d="M1099.06 462.566C1099.06 463.766 1098.46 464.367 1097.26 464.367H1093.04C1091.76 464.367 1091.12 463.766 1091.12 462.566V398.75C1091.12 398.204 1091.29 397.768 1091.65 397.44C1092 397.113 1092.43 396.949 1092.92 396.949H1097.17C1097.75 396.949 1098.21 397.126 1098.55 397.48C1098.89 397.836 1099.06 398.259 1099.06 398.75V462.566Z" fill="white"/>
<path d="M1159.07 438.251C1159.07 435.686 1158.58 433.236 1157.6 430.903C1156.61 428.57 1155.28 426.531 1153.59 424.783C1151.9 423.038 1149.91 421.646 1147.64 420.608C1145.36 419.572 1142.94 419.053 1140.38 419.053C1137.82 419.053 1135.41 419.572 1133.16 420.608C1130.92 421.646 1128.95 423.038 1127.28 424.783C1125.6 426.531 1124.28 428.57 1123.31 430.903C1122.34 433.236 1121.86 435.686 1121.86 438.251C1121.86 440.789 1122.34 443.232 1123.31 445.578C1124.28 447.926 1125.6 449.992 1127.28 451.779C1128.95 453.567 1130.92 454.993 1133.16 456.057C1135.41 457.122 1137.82 457.654 1140.38 457.654C1142.94 457.654 1145.36 457.122 1147.64 456.057C1149.91 454.993 1151.9 453.567 1153.59 451.779C1155.28 449.992 1156.61 447.926 1157.6 445.578C1158.58 443.232 1159.07 440.789 1159.07 438.251ZM1158.66 457.449C1156.31 459.85 1153.58 461.741 1150.47 463.118C1147.36 464.496 1143.99 465.186 1140.36 465.186C1137.93 465.186 1135.58 464.864 1133.3 464.223C1131.02 463.583 1128.89 462.668 1126.89 461.481C1124.9 460.294 1123.09 458.882 1121.45 457.245C1119.81 455.607 1118.4 453.785 1117.21 451.779C1116.03 449.774 1115.11 447.633 1114.47 445.353C1113.83 443.075 1113.51 440.707 1113.51 438.251C1113.51 435.795 1113.83 433.427 1114.47 431.149C1115.11 428.87 1116.03 426.735 1117.21 424.743C1118.4 422.751 1119.81 420.936 1121.45 419.299C1123.09 417.662 1124.9 416.256 1126.89 415.082C1128.89 413.909 1131.01 413.001 1133.28 412.361C1135.54 411.719 1137.9 411.398 1140.36 411.398C1143.99 411.398 1147.36 412.088 1150.47 413.465C1153.58 414.844 1156.31 416.733 1158.66 419.134V414.14C1158.66 412.94 1159.26 412.34 1160.46 412.34H1164.68C1165.96 412.34 1166.6 412.94 1166.6 414.14V462.567C1166.6 463.112 1166.42 463.548 1166.07 463.876C1165.71 464.204 1165.29 464.367 1164.8 464.367H1160.54C1159.97 464.367 1159.51 464.19 1159.17 463.835C1158.83 463.481 1158.66 463.057 1158.66 462.567V457.449Z" fill="white"/>
<path d="M1184.57 413.895C1185.09 415.26 1185.76 416.992 1186.58 419.093C1187.39 421.195 1188.28 423.468 1189.24 425.909C1190.19 428.353 1191.18 430.869 1192.2 433.462C1193.23 436.055 1194.21 438.524 1195.15 440.87C1196.09 443.218 1196.95 445.353 1197.73 447.277C1198.51 449.201 1199.13 450.722 1199.59 451.841C1200.03 450.722 1200.63 449.201 1201.39 447.277C1202.16 445.353 1203 443.211 1203.91 440.851C1204.83 438.49 1205.79 436.014 1206.8 433.421C1207.81 430.828 1208.78 428.311 1209.72 425.868C1210.67 423.427 1211.54 421.154 1212.34 419.053C1213.15 416.952 1213.81 415.219 1214.33 413.854C1214.52 413.39 1214.79 413.022 1215.15 412.749C1215.5 412.476 1215.95 412.339 1216.5 412.339H1221.04C1222.24 412.339 1222.84 412.817 1222.84 413.772C1222.84 413.854 1222.83 413.95 1222.8 414.059C1222.77 414.168 1222.73 414.291 1222.68 414.428C1222.62 414.565 1222.58 414.714 1222.56 414.877L1212.94 438.578L1196.56 478.694V478.612C1196.18 479.621 1195.46 480.127 1194.39 480.127H1190.34C1189.03 480.127 1188.38 479.621 1188.38 478.612C1188.38 478.421 1188.4 478.224 1188.46 478.018C1188.51 477.814 1188.54 477.684 1188.54 477.63L1195.38 461.133L1176.38 414.919C1176.36 414.836 1176.33 414.741 1176.3 414.631C1176.25 414.414 1176.22 414.14 1176.22 413.813C1176.22 412.859 1176.85 412.38 1178.1 412.38H1182.4C1182.95 412.38 1183.4 412.518 1183.75 412.791C1184.1 413.062 1184.38 413.431 1184.57 413.895Z" fill="white"/>
<path d="M1277.37 438.251C1277.37 435.686 1276.88 433.236 1275.89 430.903C1274.91 428.57 1273.58 426.531 1271.89 424.783C1270.2 423.038 1268.21 421.646 1265.94 420.608C1263.66 419.572 1261.24 419.053 1258.68 419.053C1256.12 419.053 1253.71 419.572 1251.46 420.608C1249.21 421.646 1247.25 423.038 1245.57 424.783C1243.9 426.531 1242.58 428.57 1241.61 430.903C1240.64 433.236 1240.16 435.686 1240.16 438.251C1240.16 440.789 1240.64 443.232 1241.61 445.578C1242.58 447.926 1243.9 449.992 1245.57 451.779C1247.25 453.567 1249.21 454.993 1251.46 456.057C1253.71 457.122 1256.12 457.654 1258.68 457.654C1261.24 457.654 1263.66 457.122 1265.94 456.057C1268.21 454.993 1270.2 453.567 1271.89 451.779C1273.58 449.992 1274.91 447.926 1275.89 445.578C1276.88 443.232 1277.37 440.789 1277.37 438.251ZM1276.96 457.449C1274.61 459.85 1271.88 461.741 1268.77 463.118C1265.66 464.496 1262.29 465.186 1258.66 465.186C1256.23 465.186 1253.88 464.864 1251.6 464.223C1249.32 463.583 1247.18 462.668 1245.19 461.481C1243.2 460.294 1241.39 458.882 1239.75 457.245C1238.11 455.607 1236.7 453.785 1235.51 451.779C1234.32 449.774 1233.41 447.633 1232.77 445.353C1232.13 443.075 1231.81 440.707 1231.81 438.251C1231.81 435.795 1232.13 433.427 1232.77 431.149C1233.41 428.87 1234.32 426.735 1235.51 424.743C1236.7 422.751 1238.11 420.936 1239.75 419.299C1241.39 417.662 1243.2 416.256 1245.19 415.082C1247.18 413.909 1249.31 413.001 1251.58 412.361C1253.84 411.719 1256.2 411.398 1258.66 411.398C1262.29 411.398 1265.66 412.088 1268.77 413.465C1271.88 414.844 1274.61 416.733 1276.96 419.134V414.14C1276.96 412.94 1277.56 412.34 1278.76 412.34H1282.97C1284.26 412.34 1284.9 412.94 1284.9 414.14V462.567C1284.9 463.112 1284.72 463.548 1284.37 463.876C1284.01 464.204 1283.59 464.367 1283.1 464.367H1278.84C1278.27 464.367 1277.81 464.19 1277.47 463.835C1277.13 463.481 1276.96 463.057 1276.96 462.567V457.449Z" fill="white"/>
<path d="M1308.15 419.257C1308.91 418.302 1309.77 417.368 1310.73 416.453C1311.68 415.54 1312.75 414.721 1313.94 413.998C1315.13 413.275 1316.44 412.688 1317.89 412.237C1319.34 411.787 1320.96 411.562 1322.76 411.562C1326.12 411.562 1329.08 412.141 1331.64 413.301C1334.21 414.462 1336.36 416.044 1338.09 418.05C1339.82 420.056 1341.13 422.41 1342.02 425.111C1342.91 427.813 1343.35 430.705 1343.35 433.789V461.584C1343.35 462.511 1343.11 463.207 1342.63 463.671C1342.16 464.135 1341.55 464.367 1340.81 464.367H1337.78C1336.77 464.367 1336.13 464.162 1335.84 463.753C1335.55 463.344 1335.41 462.662 1335.41 461.707V433.789C1335.41 432.151 1335.18 430.48 1334.73 428.774C1334.28 427.069 1333.55 425.521 1332.52 424.129C1331.5 422.737 1330.14 421.605 1328.45 420.731C1326.76 419.858 1324.69 419.421 1322.23 419.421C1320.67 419.421 1319.06 419.701 1317.4 420.26C1315.73 420.82 1314.22 421.646 1312.86 422.737C1311.49 423.828 1310.36 425.18 1309.48 426.789C1308.59 428.4 1308.15 430.242 1308.15 432.315V462.566C1308.15 463.767 1307.55 464.367 1306.35 464.367H1302.13C1300.85 464.367 1300.21 463.767 1300.21 462.566V414.182C1300.21 413.636 1300.38 413.199 1300.74 412.872C1301.09 412.545 1301.52 412.38 1302.01 412.38H1306.26C1306.84 412.38 1307.29 412.559 1307.64 412.912C1307.98 413.268 1308.15 413.691 1308.15 414.182V419.257Z" fill="white"/>
<path d="M1400.78 438.251C1400.78 435.686 1400.29 433.236 1399.31 430.903C1398.33 428.57 1396.99 426.531 1395.3 424.783C1393.61 423.038 1391.63 421.646 1389.35 420.608C1387.08 419.572 1384.66 419.053 1382.09 419.053C1379.53 419.053 1377.13 419.572 1374.88 420.608C1372.63 421.646 1370.67 423.038 1368.99 424.783C1367.31 426.531 1365.99 428.57 1365.02 430.903C1364.06 433.236 1363.57 435.686 1363.57 438.251C1363.57 440.789 1364.06 443.232 1365.02 445.578C1365.99 447.926 1367.31 449.992 1368.99 451.779C1370.67 453.567 1372.63 454.993 1374.88 456.057C1377.13 457.122 1379.53 457.654 1382.09 457.654C1384.66 457.654 1387.08 457.122 1389.35 456.057C1391.63 454.993 1393.61 453.567 1395.3 451.779C1396.99 449.992 1398.33 447.926 1399.31 445.578C1400.29 443.232 1400.78 440.789 1400.78 438.251ZM1400.37 457.449C1398.02 459.85 1395.3 461.741 1392.18 463.118C1389.07 464.496 1385.7 465.186 1382.07 465.186C1379.64 465.186 1377.29 464.864 1375.01 464.223C1372.73 463.583 1370.6 462.668 1368.61 461.481C1366.61 460.294 1364.8 458.882 1363.16 457.245C1361.52 455.607 1360.11 453.785 1358.93 451.779C1357.74 449.774 1356.82 447.633 1356.18 445.353C1355.54 443.075 1355.22 440.707 1355.22 438.251C1355.22 435.795 1355.54 433.427 1356.18 431.149C1356.82 428.87 1357.74 426.735 1358.93 424.743C1360.11 422.751 1361.52 420.936 1363.16 419.299C1364.8 417.662 1366.61 416.256 1368.61 415.082C1370.6 413.909 1372.73 413.001 1374.99 412.361C1377.26 411.719 1379.62 411.398 1382.07 411.398C1385.7 411.398 1389.07 412.088 1392.18 413.465C1395.3 414.844 1398.02 416.733 1400.37 419.134V414.14C1400.37 412.94 1400.97 412.34 1402.17 412.34H1406.39C1407.67 412.34 1408.31 412.94 1408.31 414.14V462.567C1408.31 463.112 1408.13 463.548 1407.78 463.876C1407.42 464.204 1407 464.367 1406.51 464.367H1402.25C1401.68 464.367 1401.22 464.19 1400.88 463.835C1400.54 463.481 1400.37 463.057 1400.37 462.567V457.449Z" fill="white"/>
<path d="M1431.56 419.257C1432.33 418.302 1433.19 417.368 1434.14 416.453C1435.1 415.54 1436.17 414.721 1437.35 413.998C1438.54 413.275 1439.86 412.688 1441.31 412.237C1442.75 411.787 1444.38 411.562 1446.18 411.562C1449.53 411.562 1452.49 412.141 1455.06 413.301C1457.62 414.462 1459.77 416.044 1461.51 418.05C1463.24 420.056 1464.55 422.41 1465.44 425.111C1466.32 427.813 1466.77 430.705 1466.77 433.789V461.584C1466.77 462.511 1466.53 463.207 1466.05 463.671C1465.57 464.135 1464.96 464.367 1464.23 464.367H1461.2C1460.19 464.367 1459.54 464.162 1459.25 463.753C1458.97 463.344 1458.83 462.662 1458.83 461.707V433.789C1458.83 432.151 1458.6 430.48 1458.15 428.774C1457.7 427.069 1456.96 425.521 1455.94 424.129C1454.92 422.737 1453.56 421.605 1451.87 420.731C1450.17 419.858 1448.1 419.421 1445.64 419.421C1444.09 419.421 1442.48 419.701 1440.81 420.26C1439.15 420.82 1437.63 421.646 1436.27 422.737C1434.9 423.828 1433.78 425.18 1432.89 426.789C1432.01 428.4 1431.56 430.242 1431.56 432.315V462.566C1431.56 463.767 1430.96 464.367 1429.76 464.367H1425.55C1424.26 464.367 1423.62 463.767 1423.62 462.566V414.182C1423.62 413.636 1423.8 413.199 1424.15 412.872C1424.51 412.545 1424.93 412.38 1425.42 412.38H1429.68C1430.25 412.38 1430.71 412.559 1431.05 412.912C1431.39 413.268 1431.56 413.691 1431.56 414.182V419.257Z" fill="white"/>
<path d="M1531.11 456.548C1534.44 456.548 1537.51 455.934 1540.32 454.706C1543.13 453.478 1545.56 451.821 1547.59 449.733C1549.62 447.645 1551.21 445.21 1552.36 442.426C1553.5 439.642 1554.08 436.696 1554.08 433.585C1554.08 430.255 1553.48 427.226 1552.28 424.498C1551.07 421.769 1549.44 419.435 1547.38 417.497C1545.32 415.56 1542.91 414.059 1540.16 412.995C1537.4 411.93 1534.46 411.398 1531.32 411.398H1518.18V456.548H1531.11ZM1510.32 405.544C1510.32 404.235 1510.95 403.579 1512.2 403.579H1531.32C1534.24 403.579 1537.02 403.935 1539.67 404.644C1542.31 405.354 1544.77 406.363 1547.04 407.673C1549.3 408.983 1551.35 410.566 1553.18 412.422C1555 414.278 1556.57 416.33 1557.86 418.582C1559.16 420.834 1560.16 423.262 1560.87 425.868C1561.58 428.475 1561.94 431.197 1561.94 434.034C1561.94 436.846 1561.57 439.54 1560.85 442.12C1560.13 444.698 1559.1 447.113 1557.78 449.364C1556.46 451.616 1554.87 453.662 1553.01 455.505C1551.16 457.347 1549.1 458.923 1546.83 460.232C1544.57 461.543 1542.12 462.559 1539.5 463.282C1536.88 464.005 1534.15 464.367 1531.32 464.367H1512.2C1511.71 464.367 1511.27 464.251 1510.89 464.019C1510.51 463.787 1510.32 463.33 1510.32 462.648V405.544Z" fill="white"/>
<path d="M1591.69 422.164C1589.62 423.556 1587.83 425.31 1586.33 427.424C1584.83 429.539 1583.81 431.866 1583.26 434.403H1620.27C1619.97 432.138 1619.26 430.078 1618.16 428.222C1617.05 426.367 1615.67 424.784 1614 423.473C1612.34 422.164 1610.46 421.148 1608.38 420.424C1606.29 419.701 1604.12 419.339 1601.89 419.339C1600.11 419.339 1598.36 419.572 1596.63 420.035C1594.89 420.5 1593.25 421.209 1591.69 422.164ZM1614.13 452.455C1614.37 452.237 1614.64 452.032 1614.92 451.841C1615.21 451.651 1615.5 451.555 1615.81 451.555C1616.21 451.555 1616.61 451.8 1616.99 452.291C1617.54 453.029 1617.98 453.628 1618.32 454.092C1618.66 454.557 1618.94 454.925 1619.16 455.197C1619.38 455.498 1619.54 455.717 1619.65 455.853C1619.79 456.016 1619.9 456.187 1619.98 456.364C1620.06 456.542 1620.1 456.739 1620.1 456.958C1620.1 457.258 1619.99 457.58 1619.75 457.92C1619.52 458.262 1619.12 458.664 1618.55 459.127C1617.37 460.055 1616.15 460.894 1614.88 461.645C1613.62 462.396 1612.28 463.044 1610.89 463.589C1609.5 464.135 1608.03 464.558 1606.49 464.858C1604.95 465.158 1603.32 465.309 1601.6 465.309C1599.17 465.309 1596.82 464.987 1594.56 464.346C1592.3 463.706 1590.16 462.791 1588.15 461.604C1586.15 460.417 1584.32 459.005 1582.67 457.367C1581.02 455.73 1579.59 453.915 1578.39 451.923C1577.19 449.931 1576.26 447.795 1575.61 445.517C1574.95 443.238 1574.62 440.871 1574.62 438.414C1574.62 435.959 1574.93 433.585 1575.55 431.292C1576.16 429 1577.03 426.858 1578.17 424.866C1579.3 422.874 1580.67 421.059 1582.28 419.422C1583.89 417.784 1585.7 416.379 1587.7 415.205C1589.71 414.032 1591.88 413.124 1594.21 412.484C1596.55 411.842 1599.01 411.521 1601.6 411.521C1603.65 411.521 1605.68 411.753 1607.7 412.217C1609.72 412.682 1611.66 413.357 1613.51 414.243C1615.37 415.13 1617.11 416.228 1618.73 417.538C1620.36 418.848 1621.81 420.349 1623.09 422.041C1624.84 424.388 1626.13 427.062 1626.98 430.064C1627.83 433.067 1628.22 436.519 1628.17 440.421C1628.17 441.703 1627.57 442.344 1626.37 442.344H1583.22C1583.69 444.528 1584.5 446.546 1585.66 448.403C1586.82 450.259 1588.21 451.876 1589.83 453.253C1591.45 454.632 1593.26 455.71 1595.26 456.487C1597.25 457.264 1599.31 457.653 1601.44 457.653C1602.94 457.653 1604.29 457.51 1605.51 457.223C1606.72 456.937 1607.83 456.555 1608.83 456.078C1609.82 455.6 1610.74 455.055 1611.59 454.44C1612.43 453.826 1613.25 453.192 1614.05 452.537L1614.13 452.455Z" fill="white"/>
<path d="M1638.89 454.215C1638.75 453.806 1638.66 453.472 1638.6 453.213C1638.55 452.953 1638.56 452.735 1638.62 452.558C1638.69 452.38 1638.8 452.224 1638.95 452.087C1639.1 451.951 1639.31 451.814 1639.59 451.677L1643.48 449.876C1644.16 449.604 1644.69 449.638 1645.07 449.978C1645.45 450.32 1645.75 450.735 1645.97 451.227C1646.38 452.292 1647.03 453.226 1647.92 454.031C1648.8 454.837 1649.77 455.499 1650.8 456.017C1651.84 456.535 1652.89 456.924 1653.95 457.183C1655.02 457.442 1655.93 457.572 1656.7 457.572C1657.73 457.572 1658.88 457.422 1660.14 457.122C1661.39 456.821 1662.57 456.358 1663.68 455.73C1664.78 455.102 1665.71 454.291 1666.46 453.295C1667.21 452.299 1667.59 451.119 1667.59 449.754C1667.59 448.28 1667.23 447.092 1666.52 446.192C1665.81 445.292 1664.89 444.548 1663.76 443.962C1662.63 443.375 1661.36 442.904 1659.95 442.549C1658.55 442.195 1657.15 441.826 1655.76 441.444C1653.3 440.789 1651.11 439.991 1649.19 439.049C1647.26 438.108 1645.62 437.017 1644.27 435.775C1642.92 434.533 1641.89 433.113 1641.18 431.518C1640.47 429.921 1640.12 428.127 1640.12 426.134C1640.12 423.952 1640.54 421.959 1641.39 420.158C1642.23 418.357 1643.41 416.816 1644.93 415.533C1646.44 414.25 1648.26 413.254 1650.37 412.544C1652.49 411.835 1654.83 411.48 1657.39 411.48C1659.49 411.48 1661.3 411.671 1662.82 412.053C1664.33 412.436 1665.68 413.001 1666.85 413.753C1668.02 414.503 1669.1 415.43 1670.08 416.536C1671.07 417.641 1672.09 418.917 1673.15 420.363C1673.48 420.909 1673.66 421.38 1673.69 421.775C1673.71 422.171 1673.47 422.56 1672.95 422.942L1669.76 425.356C1669.13 425.712 1668.65 425.807 1668.32 425.643C1667.99 425.479 1667.64 425.166 1667.26 424.702C1666.63 423.965 1666.02 423.255 1665.42 422.573C1664.82 421.892 1664.13 421.284 1663.37 420.752C1662.61 420.22 1661.74 419.797 1660.77 419.483C1659.8 419.169 1658.65 419.012 1657.31 419.012C1656.11 419.012 1654.95 419.149 1653.83 419.421C1652.71 419.695 1651.71 420.132 1650.82 420.731C1649.94 421.332 1649.23 422.089 1648.69 423.003C1648.16 423.918 1647.9 425.003 1647.9 426.258C1647.9 427.213 1648.22 428.093 1648.88 428.897C1649.53 429.703 1650.37 430.432 1651.38 431.088C1652.38 431.743 1653.49 432.302 1654.69 432.766C1655.89 433.23 1657.05 433.599 1658.17 433.871C1660.76 434.471 1663.13 435.236 1665.27 436.163C1667.41 437.091 1669.25 438.196 1670.78 439.479C1672.31 440.763 1673.49 442.256 1674.34 443.962C1675.19 445.667 1675.61 447.598 1675.61 449.754C1675.61 452.128 1675.14 454.264 1674.2 456.16C1673.26 458.057 1671.95 459.667 1670.27 460.99C1668.59 462.314 1666.59 463.33 1664.27 464.039C1661.95 464.748 1659.43 465.104 1656.7 465.104C1654.98 465.104 1653.21 464.885 1651.4 464.45C1649.58 464.012 1647.87 463.344 1646.26 462.444C1644.65 461.542 1643.19 460.41 1641.88 459.046C1640.57 457.681 1639.57 456.072 1638.89 454.215Z" fill="white"/>
<path d="M1731.97 438.251C1731.97 435.686 1731.48 433.236 1730.5 430.903C1729.52 428.57 1728.19 426.531 1726.49 424.783C1724.81 423.038 1722.82 421.646 1720.55 420.608C1718.27 419.572 1715.85 419.053 1713.29 419.053C1710.73 419.053 1708.32 419.572 1706.07 420.608C1703.82 421.646 1701.86 423.038 1700.18 424.783C1698.51 426.531 1697.18 428.57 1696.22 430.903C1695.25 433.236 1694.77 435.686 1694.77 438.251C1694.77 440.789 1695.25 443.232 1696.22 445.578C1697.18 447.926 1698.51 449.992 1700.18 451.779C1701.86 453.567 1703.82 454.993 1706.07 456.057C1708.32 457.122 1710.73 457.654 1713.29 457.654C1715.85 457.654 1718.27 457.122 1720.55 456.057C1722.82 454.993 1724.81 453.567 1726.49 451.779C1728.19 449.992 1729.52 447.926 1730.5 445.578C1731.48 443.232 1731.97 440.789 1731.97 438.251ZM1731.57 457.449C1729.22 459.85 1726.49 461.741 1723.38 463.118C1720.27 464.496 1716.9 465.186 1713.27 465.186C1710.84 465.186 1708.48 464.864 1706.21 464.223C1703.93 463.583 1701.79 462.668 1699.8 461.481C1697.81 460.294 1695.99 458.882 1694.36 457.245C1692.72 455.607 1691.31 453.785 1690.12 451.779C1688.93 449.774 1688.02 447.633 1687.38 445.353C1686.73 443.075 1686.42 440.707 1686.42 438.251C1686.42 435.795 1686.73 433.427 1687.38 431.149C1688.02 428.87 1688.93 426.735 1690.12 424.743C1691.31 422.751 1692.72 420.936 1694.36 419.299C1695.99 417.662 1697.81 416.256 1699.8 415.082C1701.79 413.909 1703.92 413.001 1706.19 412.361C1708.45 411.719 1710.81 411.398 1713.27 411.398C1716.9 411.398 1720.27 412.088 1723.38 413.465C1726.49 414.844 1729.22 416.733 1731.57 419.134V414.14C1731.57 412.94 1732.16 412.34 1733.37 412.34H1737.58C1738.86 412.34 1739.51 412.94 1739.51 414.14V462.567C1739.51 463.112 1739.33 463.548 1738.97 463.876C1738.62 464.204 1738.2 464.367 1737.71 464.367H1733.45C1732.88 464.367 1732.42 464.19 1732.08 463.835C1731.73 463.481 1731.57 463.057 1731.57 462.567V457.449Z" fill="white"/>
<path d="M652.58 291.241C654.219 292.593 656.317 294.402 658.875 296.667C661.429 298.935 664.348 301.177 667.628 303.395C672.547 306.675 677.417 309.232 682.241 311.063C687.063 312.897 692.127 313.812 697.433 313.812C702.352 313.812 706.476 313.259 709.804 312.151C713.132 311.043 715.758 309.571 717.689 307.739C719.618 305.909 720.992 303.791 721.813 301.38C722.631 298.971 723.042 296.416 723.042 293.716C723.042 290.73 721.908 288.056 719.643 285.695C717.375 283.335 714.601 281.237 711.323 279.406C708.043 277.575 704.618 276.011 701.051 274.709C697.481 273.407 694.395 272.324 691.79 271.456C680.215 267.409 670.088 263.048 661.406 258.373C652.725 253.698 645.491 248.494 639.703 242.761C633.916 237.027 629.576 230.713 626.682 223.823C623.788 216.931 622.341 209.246 622.341 200.763C622.341 191.802 624.15 183.657 627.767 176.332C631.384 169.007 636.543 162.743 643.248 157.539C649.951 152.334 658.029 148.313 667.483 145.469C676.935 142.624 687.497 141.203 699.169 141.203C707.945 141.203 716.362 142.193 724.417 144.169C732.469 146.146 740.405 149.305 748.218 153.646C751.496 155.576 754.606 157.576 757.55 159.65C760.491 161.725 763.071 163.726 765.29 165.654C767.509 167.585 769.269 169.416 770.572 171.152C771.874 172.889 772.525 174.385 772.525 175.637C772.525 176.892 772.211 178.05 771.585 179.11C770.956 180.172 770.016 181.377 768.763 182.727L746.626 206.311C744.985 207.952 743.346 208.771 741.707 208.771C740.355 208.771 739.125 208.386 738.018 207.613C736.907 206.842 735.678 205.877 734.328 204.719L733.026 203.562C731.096 201.923 728.95 200.234 726.587 198.498C724.223 196.762 721.69 195.195 718.991 193.795C716.29 192.399 713.444 191.241 710.454 190.323C707.464 189.408 704.425 188.949 701.34 188.949C698.157 188.949 695.166 189.215 692.369 189.744C689.57 190.276 687.111 191.119 684.99 192.277C682.867 193.434 681.178 194.953 679.926 196.834C678.672 198.715 678.045 201.008 678.045 203.707C678.045 206.408 678.719 208.748 680.071 210.724C681.42 212.702 683.447 214.536 686.148 216.222C688.847 217.911 692.2 219.502 696.203 220.996C700.205 222.493 704.86 224.107 710.165 225.844C720.389 229.221 729.818 232.766 738.452 236.478C747.083 240.192 754.534 244.58 760.806 249.645C767.075 254.709 771.969 260.763 775.491 267.803C779.011 274.845 780.772 283.38 780.772 293.411C780.772 304.023 778.602 313.645 774.261 322.276C769.921 330.91 763.964 338.264 756.393 344.341C748.819 350.418 739.921 355.12 729.698 358.447C719.473 361.775 708.477 363.438 696.71 363.438C685.616 363.438 674.717 361.454 664.01 357.491C653.304 353.525 643.321 348.204 634.061 341.529C630.201 338.723 626.947 335.965 624.295 333.256C621.64 330.548 619.542 328.373 618 326.728L617.566 326.291C617.47 326.1 617.372 325.979 617.277 325.93C617.18 325.882 617.083 325.81 616.988 325.71C616.89 325.518 616.794 325.398 616.699 325.349C616.601 325.301 616.505 325.229 616.409 325.131C614.189 322.713 613.082 320.778 613.082 319.326C613.082 317.683 614.189 315.845 616.409 313.812L641.44 289.94C643.465 288.493 645.105 287.769 646.359 287.769C647.227 287.769 648.143 288.058 649.109 288.637C650.072 289.216 651.228 290.083 652.58 291.241Z" fill="white"/>
<path d="M806.359 217.409C806.359 214.845 807.08 212.642 808.522 210.798C809.965 208.955 812.208 208.033 815.253 208.033H842.781C843.742 208.033 844.783 208.255 845.906 208.694C847.027 209.135 848.069 209.776 849.03 210.617C849.993 211.459 850.813 212.441 851.496 213.562C852.174 214.685 852.517 215.967 852.517 217.409V351.434C852.517 354.481 851.675 356.784 849.993 358.346C848.31 359.908 845.906 360.69 842.781 360.69H815.253C809.323 360.69 806.359 357.606 806.359 351.434V217.409ZM806.359 156.586C806.359 153.22 807.08 150.837 808.522 149.434C809.965 148.033 812.208 147.331 815.253 147.331H843.141C845.944 147.331 848.209 148.033 849.933 149.434C851.655 150.837 852.517 153.22 852.517 156.586V180.025C852.517 180.987 852.295 182.029 851.855 183.151C851.414 184.274 850.792 185.356 849.993 186.396C849.19 187.439 848.209 188.301 847.047 188.981C845.885 189.662 844.583 190.003 843.141 190.003H815.253C809.323 190.003 806.359 186.678 806.359 180.025V156.586Z" fill="white"/>
<path d="M920.069 284.482C920.069 289.771 920.889 294.719 922.533 299.327C924.175 303.936 926.519 307.921 929.565 311.287C932.609 314.652 936.275 317.318 940.563 319.28C944.849 321.245 949.597 322.225 954.807 322.225C960.175 322.225 965.164 321.245 969.772 319.28C974.38 317.318 978.386 314.652 981.792 311.287C985.197 307.921 987.863 303.936 989.786 299.327C991.709 294.719 992.671 289.771 992.671 284.482C992.671 279.355 991.709 274.466 989.786 269.817C987.863 265.17 985.197 261.083 981.792 257.556C978.386 254.031 974.38 251.246 969.772 249.202C965.164 247.159 960.175 246.137 954.807 246.137C949.597 246.137 944.849 247.159 940.563 249.202C936.275 251.246 932.609 254.031 929.565 257.556C926.519 261.083 924.175 265.17 922.533 269.817C920.889 274.466 920.069 279.355 920.069 284.482ZM1038.47 351.796C1038.47 353.158 1038.23 354.46 1037.75 355.701C1037.27 356.945 1036.46 357.925 1035.34 358.646C1034.46 359.529 1033.42 360.089 1032.22 360.329C1031.02 360.57 1029.97 360.69 1029.09 360.69H1005.41C1003.73 360.69 1002.37 360.471 1001.33 360.029C1000.28 359.59 999.442 358.968 998.801 358.165C998.159 357.366 997.619 356.383 997.178 355.221C996.737 354.06 996.278 352.798 995.797 351.435L994.233 346.026C992.07 348.189 989.606 350.313 986.841 352.396C984.077 354.481 981.031 356.344 977.706 357.986C974.38 359.629 970.814 360.949 967.008 361.952C963.201 362.953 959.255 363.455 955.167 363.455C947.875 363.455 940.882 362.532 934.193 360.69C927.5 358.848 921.25 356.223 915.441 352.817C909.63 349.412 904.362 345.324 899.634 340.557C894.905 335.789 890.839 330.479 887.433 324.629C884.027 318.781 881.403 312.47 879.561 305.697C877.716 298.927 876.795 291.855 876.795 284.482C876.795 273.344 878.839 262.986 882.926 253.41C887.013 243.834 892.581 235.499 899.634 228.407C906.685 221.316 914.978 215.747 924.516 211.699C934.052 207.653 944.269 205.629 955.167 205.629C960.136 205.629 964.763 206.191 969.051 207.311C973.337 208.435 977.265 209.956 980.831 211.879C984.396 213.803 987.622 216.107 990.508 218.791C993.392 221.477 995.917 224.38 998.081 227.505L1001.57 216.567C1002.37 214.565 1003.03 212.942 1003.55 211.699C1004.07 210.458 1004.63 209.535 1005.23 208.935C1005.83 208.333 1006.57 207.933 1007.46 207.732C1008.34 207.533 1009.58 207.432 1011.18 207.432H1029.09C1029.97 207.432 1031.02 207.552 1032.22 207.792C1033.42 208.033 1034.46 208.594 1035.34 209.475C1036.46 210.358 1037.27 211.359 1037.75 212.48C1038.23 213.603 1038.47 214.885 1038.47 216.327V351.796Z" fill="white"/>
<path d="M1070.44 210.184C1071.48 209.302 1072.59 208.741 1073.75 208.501C1074.91 208.26 1076.01 208.14 1077.05 208.14H1095.2C1096.65 208.14 1097.89 208.401 1098.93 208.922C1099.97 209.444 1100.85 210.144 1101.57 211.023C1102.3 211.902 1102.88 212.901 1103.32 214.021C1103.76 215.14 1104.18 216.297 1104.58 217.496L1107.1 228.043C1108.31 225.568 1110.25 223.009 1112.93 220.372C1115.62 217.735 1118.94 215.34 1122.91 213.181C1126.88 211.025 1131.46 209.247 1136.67 207.848C1141.88 206.45 1147.69 205.749 1154.1 205.749C1163.24 205.749 1171.39 207.507 1178.56 211.023C1185.74 214.54 1191.83 219.334 1196.84 225.408C1201.84 231.482 1205.65 238.578 1208.25 246.699C1210.86 254.82 1212.16 263.488 1212.16 272.703V351.435C1212.16 354.481 1211.5 356.784 1210.18 358.346C1208.86 359.909 1206.75 360.69 1203.87 360.69H1176.1C1172.65 360.69 1170.29 360.11 1169.01 358.947C1167.73 357.786 1167.09 355.521 1167.09 352.156V273.905C1167.09 270.459 1166.3 267.194 1164.74 264.108C1163.18 261.024 1161.11 258.299 1158.55 255.934C1155.99 253.571 1153.08 251.708 1149.84 250.344C1146.59 248.983 1143.29 248.301 1139.92 248.301C1137.04 248.301 1134.09 248.944 1131.08 250.224C1128.08 251.507 1125.32 253.289 1122.79 255.573C1120.27 257.857 1118.14 260.543 1116.42 263.627C1114.7 266.713 1113.72 270.058 1113.47 273.664V351.796C1113.47 353.158 1113.21 354.521 1112.69 355.882C1112.17 357.246 1111.39 358.286 1110.35 359.008C1109.31 359.649 1108.32 360.089 1107.4 360.329C1106.48 360.57 1105.42 360.69 1104.22 360.69H1077.05C1073.61 360.69 1071.12 359.849 1069.6 358.165C1068.08 356.483 1067.32 354.24 1067.32 351.435V217.016C1067.32 215.499 1067.66 214.102 1068.34 212.822C1069.02 211.543 1069.96 210.544 1071.16 209.825L1070.44 210.184Z" fill="white"/>
<path d="M1303.56 197.63V308.893H1315.71C1317.93 308.893 1320.1 308.82 1322.22 308.676C1324.34 308.531 1326.46 308.364 1328.59 308.169C1335.82 307.59 1342.57 305.832 1348.84 302.888C1355.11 299.947 1360.58 296.089 1365.26 291.313C1369.94 286.539 1373.61 280.921 1376.26 274.458C1378.91 267.996 1380.24 260.954 1380.24 253.333C1380.24 245.231 1378.72 237.78 1375.68 230.979C1372.64 224.179 1368.52 218.297 1363.31 213.328C1358.1 208.362 1352 204.502 1345.01 201.754C1338.01 199.004 1330.56 197.63 1322.65 197.63H1303.56ZM1435.94 253.478C1435.94 263.703 1434.64 273.423 1432.04 282.632C1429.43 291.844 1425.72 300.429 1420.9 308.386C1416.07 316.344 1410.31 323.555 1403.61 330.017C1396.9 336.48 1389.47 341.978 1381.32 346.511C1373.17 351.047 1364.37 354.541 1354.92 357C1345.46 359.461 1335.68 360.69 1325.55 360.69H1254.22C1252.48 360.69 1250.94 360.306 1249.59 359.532C1248.24 358.762 1247.56 357.122 1247.56 354.613V152.488C1247.56 150.462 1248.12 148.823 1249.23 147.568C1250.33 146.316 1252 145.687 1254.22 145.687H1325.55C1335.68 145.687 1345.44 146.942 1354.85 149.449C1364.25 151.959 1373.03 155.526 1381.18 160.156C1389.33 164.786 1396.78 170.333 1403.53 176.795C1410.28 183.258 1416.05 190.493 1420.82 198.497C1425.6 206.505 1429.31 215.136 1431.96 224.397C1434.62 233.656 1435.94 243.35 1435.94 253.478Z" fill="white"/>
<path d="M1534.91 242.291C1531.79 242.291 1528.76 242.913 1525.84 244.154C1522.91 245.397 1520.17 247.059 1517.6 249.142C1515.04 251.227 1512.74 253.59 1510.69 256.234C1508.65 258.879 1506.99 261.564 1505.7 264.288H1567.13C1565.44 261.163 1563.62 258.278 1561.66 255.633C1559.69 252.989 1557.45 250.666 1554.93 248.661C1552.4 246.659 1549.52 245.097 1546.27 243.974C1543.03 242.852 1539.24 242.291 1534.91 242.291ZM1592.73 342.419C1585.68 348.91 1577.74 353.979 1568.93 357.625C1560.11 361.271 1550.78 363.094 1540.92 363.094C1529.94 363.094 1519.57 361.09 1509.79 357.084C1500.01 353.078 1491.44 347.528 1484.07 340.436C1476.69 333.344 1470.85 324.99 1466.52 315.374C1462.19 305.758 1460.03 295.3 1460.03 284.001C1460.03 276.95 1460.89 270.118 1462.61 263.506C1464.33 256.895 1466.78 250.705 1469.94 244.935C1473.11 239.166 1476.96 233.858 1481.48 229.008C1486.01 224.161 1491.08 220.014 1496.69 216.567C1502.3 213.123 1508.39 210.437 1514.96 208.514C1521.53 206.591 1528.46 205.629 1535.75 205.629C1542.4 205.629 1548.86 206.511 1555.11 208.273C1561.36 210.037 1567.23 212.522 1572.72 215.726C1578.2 218.932 1583.24 222.778 1587.8 227.266C1592.37 231.754 1596.3 236.661 1599.58 241.991C1602.87 247.32 1605.41 253.009 1607.22 259.059C1609.02 265.111 1609.92 271.341 1609.92 277.75C1609.92 281.919 1609.86 285.323 1609.74 287.968C1609.62 290.612 1609 292.716 1607.88 294.278C1606.75 295.841 1604.89 296.922 1602.29 297.524C1599.68 298.125 1595.86 298.425 1590.81 298.425H1504.26C1505.06 303.555 1506.68 307.842 1509.13 311.287C1511.57 314.734 1514.4 317.478 1517.6 319.521C1520.81 321.564 1524.22 323.027 1527.82 323.908C1531.43 324.791 1534.83 325.23 1538.04 325.23C1540.92 325.23 1543.89 324.93 1546.93 324.33C1549.98 323.728 1552.92 322.927 1555.77 321.925C1558.61 320.924 1561.22 319.761 1563.58 318.438C1565.94 317.117 1567.85 315.735 1569.29 314.292C1570.57 313.252 1571.67 312.47 1572.6 311.948C1573.52 311.427 1574.5 311.166 1575.54 311.166C1576.58 311.166 1577.65 311.527 1578.73 312.248C1579.81 312.969 1581.03 314.012 1582.39 315.374L1595.13 329.798C1596.02 330.841 1596.58 331.782 1596.82 332.623C1597.06 333.464 1597.18 334.326 1597.18 335.207C1597.18 336.81 1596.74 338.193 1595.86 339.355C1594.97 340.516 1593.93 341.538 1592.73 342.419Z" fill="white"/>
<path d="M1657.88 313.21C1660.04 315.374 1662.39 317.197 1664.91 318.68C1667.44 320.164 1669.86 321.366 1672.18 322.286C1674.51 323.208 1676.55 323.869 1678.31 324.268C1680.08 324.671 1681.28 324.87 1681.92 324.87C1683.44 324.87 1685.38 324.81 1687.75 324.69C1690.11 324.569 1692.38 324.209 1694.54 323.608C1696.7 323.007 1698.57 322.027 1700.13 320.662C1701.69 319.301 1702.47 317.378 1702.47 314.894C1702.47 312.65 1702.03 310.867 1701.15 309.544C1700.27 308.221 1698.99 307.101 1697.31 306.179C1695.62 305.258 1693.56 304.435 1691.12 303.714C1688.67 302.993 1685.93 302.152 1682.88 301.19C1673.27 298.626 1665.33 295.541 1659.08 291.935C1652.83 288.329 1647.88 284.302 1644.24 279.854C1640.59 275.407 1638.05 270.619 1636.6 265.491C1635.16 260.363 1634.44 254.953 1634.44 249.263C1634.44 242.612 1635.76 236.563 1638.41 231.112C1641.05 225.664 1644.82 220.997 1649.71 217.108C1654.59 213.222 1660.44 210.217 1667.26 208.094C1674.07 205.971 1681.64 204.908 1689.97 204.908C1695.02 204.908 1699.75 205.329 1704.16 206.17C1708.56 207.011 1712.77 208.333 1716.78 210.136C1720.78 211.94 1724.69 214.265 1728.5 217.108C1732.3 219.954 1736.09 223.341 1739.86 227.266C1741.22 228.869 1741.92 230.372 1741.96 231.773C1742 233.176 1741.1 234.679 1739.26 236.28C1736.13 238.847 1733.15 241.371 1730.3 243.854C1727.46 246.338 1724.51 249.103 1721.47 252.147C1720.51 252.95 1719.54 253.451 1718.58 253.65C1717.62 253.851 1716.7 253.83 1715.82 253.59C1714.93 253.349 1714.09 252.95 1713.29 252.388C1712.49 251.828 1711.77 251.147 1711.13 250.344C1708.32 247.219 1705.12 245.116 1701.51 244.034C1697.91 242.952 1694.54 242.411 1691.42 242.411C1687.49 242.411 1684.36 243.093 1682.04 244.455C1679.71 245.818 1678.63 247.901 1678.79 250.705C1678.95 252.79 1679.74 254.413 1681.14 255.574C1682.54 256.736 1684.26 257.677 1686.31 258.398C1688.35 259.119 1690.51 259.702 1692.8 260.141C1695.08 260.582 1697.19 261.084 1699.11 261.644C1706.32 263.969 1712.93 266.493 1718.94 269.216C1724.95 271.942 1730.16 275.286 1734.57 279.253C1738.98 283.22 1742.4 287.968 1744.85 293.497C1747.29 299.026 1748.51 305.758 1748.51 313.691C1748.51 321.624 1746.93 328.716 1743.76 334.967C1740.6 341.218 1736.25 346.467 1730.72 350.713C1725.19 354.962 1718.64 358.207 1711.07 360.45C1703.5 362.692 1695.34 363.816 1686.61 363.816C1681.64 363.816 1676.59 363.374 1671.46 362.493C1666.33 361.61 1661.37 360.19 1656.56 358.226C1651.75 356.263 1647.18 353.739 1642.85 350.654C1638.53 347.569 1634.68 343.822 1631.31 339.415C1630.43 338.293 1629.77 337.112 1629.33 335.868C1628.89 334.627 1628.69 333.404 1628.73 332.202C1628.77 331 1629.01 329.899 1629.45 328.896C1629.89 327.896 1630.59 327.033 1631.56 326.313L1647.06 310.806C1648.99 309.204 1650.69 308.642 1652.17 309.124C1653.65 309.604 1655.55 310.968 1657.88 313.21Z" fill="white"/>
</svg>
